<svg width="39" height="28" viewBox="0 0 39 28" fill="none" xmlns="http://www.w3.org/2000/svg">
<path d="M37.3281 2.36211C35.9261 0.68432 33.3374 -6.10352e-05 28.3938 -6.10352e-05H10.448C5.39116 -6.10352e-05 2.75867 0.728465 1.36186 2.51471C0 4.25631 0 6.82243 0 10.374V17.1433C0 24.0238 1.61583 27.5172 10.448 27.5172H28.3938C32.6809 27.5172 35.0566 26.9134 36.5936 25.4326C38.1697 23.9143 38.8421 21.4352 38.8421 17.1433V10.374C38.8421 6.62857 38.7368 4.04733 37.3281 2.36211ZM24.9368 14.6932L16.7877 18.9805C16.6055 19.0763 16.4063 19.1239 16.2073 19.1239C15.982 19.1239 15.7572 19.0628 15.5581 18.9415C15.1833 18.7128 14.9543 18.3038 14.9543 17.8626V9.3155C14.9543 8.87506 15.1826 8.4664 15.5568 8.2376C15.931 8.00881 16.3965 7.99317 16.7848 8.19623L24.934 12.4559C25.3486 12.6726 25.6088 13.1034 25.6094 13.5735C25.61 14.044 25.3508 14.4755 24.9368 14.6932Z" fill="white"/>
</svg>
